%TF.GenerationSoftware,KiCad,Pcbnew,9.0.0*%
%TF.CreationDate,2025-07-26T11:30:09+07:00*%
%TF.ProjectId,O1_Circuit,4f315f43-6972-4637-9569-742e6b696361,rev?*%
%TF.SameCoordinates,Original*%
%TF.FileFunction,Plated,1,2,PTH,Drill*%
%TF.FilePolarity,Positive*%
%FSLAX46Y46*%
G04 Gerber Fmt 4.6, Leading zero omitted, Abs format (unit mm)*
G04 Created by KiCad (PCBNEW 9.0.0) date 2025-07-26 11:30:09*
%MOMM*%
%LPD*%
G01*
G04 APERTURE LIST*
%TA.AperFunction,ComponentDrill*%
%ADD10C,0.800000*%
%TD*%
%TA.AperFunction,ComponentDrill*%
%ADD11C,0.900000*%
%TD*%
%TA.AperFunction,ComponentDrill*%
%ADD12C,1.000000*%
%TD*%
%TA.AperFunction,ComponentDrill*%
%ADD13C,1.100000*%
%TD*%
G04 APERTURE END LIST*
D10*
%TO.C,R3*%
X109380000Y-105000000D03*
X117000000Y-105000000D03*
%TO.C,R2*%
X121380000Y-105000000D03*
X129000000Y-105000000D03*
%TO.C,R1*%
X140000000Y-105000000D03*
X147620000Y-105000000D03*
%TO.C,R4*%
X151190000Y-105000000D03*
X158810000Y-105000000D03*
D11*
%TO.C,D1*%
X115460000Y-89540000D03*
X118000000Y-89540000D03*
%TO.C,D2*%
X149741000Y-90201000D03*
X152281000Y-90201000D03*
D12*
%TO.C,J4*%
X133000000Y-96460000D03*
X133000000Y-99000000D03*
X133000000Y-101540000D03*
X133000000Y-104080000D03*
X133000000Y-106620000D03*
X133000000Y-109160000D03*
X133000000Y-111700000D03*
X133000000Y-114240000D03*
X133000000Y-116780000D03*
X133000000Y-119320000D03*
X135540000Y-96460000D03*
X135540000Y-99000000D03*
X135540000Y-101540000D03*
X135540000Y-104080000D03*
X135540000Y-106620000D03*
X135540000Y-109160000D03*
X135540000Y-111700000D03*
X135540000Y-114240000D03*
X135540000Y-116780000D03*
X135540000Y-119320000D03*
D13*
%TO.C,M2*%
X103460000Y-89540000D03*
X106000000Y-89540000D03*
%TO.C,Q2*%
X110920000Y-112000000D03*
%TO.C,J3*%
X111000000Y-123000000D03*
%TO.C,Q2*%
X113460000Y-112000000D03*
%TO.C,J3*%
X113540000Y-123000000D03*
%TO.C,Q2*%
X116000000Y-112000000D03*
%TO.C,J3*%
X116080000Y-123000000D03*
%TO.C,J1*%
X119360000Y-55820000D03*
X121900000Y-55820000D03*
%TO.C,U3*%
X136460000Y-69945000D03*
X139000000Y-69945000D03*
X141540000Y-69945000D03*
%TO.C,Q1*%
X151920000Y-114000000D03*
%TO.C,J2*%
X152920000Y-124000000D03*
%TO.C,Q1*%
X154460000Y-114000000D03*
%TO.C,J2*%
X155460000Y-124000000D03*
%TO.C,Q1*%
X157000000Y-114000000D03*
%TO.C,J2*%
X158000000Y-124000000D03*
%TO.C,M1*%
X161000000Y-90000000D03*
X163540000Y-90000000D03*
M02*
