%TF.GenerationSoftware,KiCad,Pcbnew,9.0.0*%
%TF.CreationDate,2025-07-26T11:29:55+07:00*%
%TF.ProjectId,O1_Circuit,4f315f43-6972-4637-9569-742e6b696361,rev?*%
%TF.SameCoordinates,Original*%
%TF.FileFunction,Legend,Top*%
%TF.FilePolarity,Positive*%
%FSLAX46Y46*%
G04 Gerber Fmt 4.6, Leading zero omitted, Abs format (unit mm)*
G04 Created by KiCad (PCBNEW 9.0.0) date 2025-07-26 11:29:55*
%MOMM*%
%LPD*%
G01*
G04 APERTURE LIST*
%ADD10C,0.150000*%
%ADD11C,0.120000*%
G04 APERTURE END LIST*
D10*
X102238095Y-124954819D02*
X102238095Y-123954819D01*
X102238095Y-124431009D02*
X102809523Y-124431009D01*
X102809523Y-124954819D02*
X102809523Y-123954819D01*
X103714285Y-124288152D02*
X103714285Y-124954819D01*
X103476190Y-123907200D02*
X103238095Y-124621485D01*
X103238095Y-124621485D02*
X103857142Y-124621485D01*
X164238095Y-124954819D02*
X164238095Y-123954819D01*
X164238095Y-124431009D02*
X164809523Y-124431009D01*
X164809523Y-124954819D02*
X164809523Y-123954819D01*
X165190476Y-123954819D02*
X165809523Y-123954819D01*
X165809523Y-123954819D02*
X165476190Y-124335771D01*
X165476190Y-124335771D02*
X165619047Y-124335771D01*
X165619047Y-124335771D02*
X165714285Y-124383390D01*
X165714285Y-124383390D02*
X165761904Y-124431009D01*
X165761904Y-124431009D02*
X165809523Y-124526247D01*
X165809523Y-124526247D02*
X165809523Y-124764342D01*
X165809523Y-124764342D02*
X165761904Y-124859580D01*
X165761904Y-124859580D02*
X165714285Y-124907200D01*
X165714285Y-124907200D02*
X165619047Y-124954819D01*
X165619047Y-124954819D02*
X165333333Y-124954819D01*
X165333333Y-124954819D02*
X165238095Y-124907200D01*
X165238095Y-124907200D02*
X165190476Y-124859580D01*
X102238095Y-49954819D02*
X102238095Y-48954819D01*
X102238095Y-49431009D02*
X102809523Y-49431009D01*
X102809523Y-49954819D02*
X102809523Y-48954819D01*
X103238095Y-49050057D02*
X103285714Y-49002438D01*
X103285714Y-49002438D02*
X103380952Y-48954819D01*
X103380952Y-48954819D02*
X103619047Y-48954819D01*
X103619047Y-48954819D02*
X103714285Y-49002438D01*
X103714285Y-49002438D02*
X103761904Y-49050057D01*
X103761904Y-49050057D02*
X103809523Y-49145295D01*
X103809523Y-49145295D02*
X103809523Y-49240533D01*
X103809523Y-49240533D02*
X103761904Y-49383390D01*
X103761904Y-49383390D02*
X103190476Y-49954819D01*
X103190476Y-49954819D02*
X103809523Y-49954819D01*
X163238095Y-49954819D02*
X163238095Y-48954819D01*
X163238095Y-49431009D02*
X163809523Y-49431009D01*
X163809523Y-49954819D02*
X163809523Y-48954819D01*
X164809523Y-49954819D02*
X164238095Y-49954819D01*
X164523809Y-49954819D02*
X164523809Y-48954819D01*
X164523809Y-48954819D02*
X164428571Y-49097676D01*
X164428571Y-49097676D02*
X164333333Y-49192914D01*
X164333333Y-49192914D02*
X164238095Y-49240533D01*
X120296666Y-59494819D02*
X120296666Y-60209104D01*
X120296666Y-60209104D02*
X120249047Y-60351961D01*
X120249047Y-60351961D02*
X120153809Y-60447200D01*
X120153809Y-60447200D02*
X120010952Y-60494819D01*
X120010952Y-60494819D02*
X119915714Y-60494819D01*
X121296666Y-60494819D02*
X120725238Y-60494819D01*
X121010952Y-60494819D02*
X121010952Y-59494819D01*
X121010952Y-59494819D02*
X120915714Y-59637676D01*
X120915714Y-59637676D02*
X120820476Y-59732914D01*
X120820476Y-59732914D02*
X120725238Y-59780533D01*
X124428570Y-56407200D02*
X124571427Y-56454819D01*
X124571427Y-56454819D02*
X124809522Y-56454819D01*
X124809522Y-56454819D02*
X124904760Y-56407200D01*
X124904760Y-56407200D02*
X124952379Y-56359580D01*
X124952379Y-56359580D02*
X124999998Y-56264342D01*
X124999998Y-56264342D02*
X124999998Y-56169104D01*
X124999998Y-56169104D02*
X124952379Y-56073866D01*
X124952379Y-56073866D02*
X124904760Y-56026247D01*
X124904760Y-56026247D02*
X124809522Y-55978628D01*
X124809522Y-55978628D02*
X124619046Y-55931009D01*
X124619046Y-55931009D02*
X124523808Y-55883390D01*
X124523808Y-55883390D02*
X124476189Y-55835771D01*
X124476189Y-55835771D02*
X124428570Y-55740533D01*
X124428570Y-55740533D02*
X124428570Y-55645295D01*
X124428570Y-55645295D02*
X124476189Y-55550057D01*
X124476189Y-55550057D02*
X124523808Y-55502438D01*
X124523808Y-55502438D02*
X124619046Y-55454819D01*
X124619046Y-55454819D02*
X124857141Y-55454819D01*
X124857141Y-55454819D02*
X124999998Y-55502438D01*
X125857141Y-56407200D02*
X125761903Y-56454819D01*
X125761903Y-56454819D02*
X125571427Y-56454819D01*
X125571427Y-56454819D02*
X125476189Y-56407200D01*
X125476189Y-56407200D02*
X125428570Y-56359580D01*
X125428570Y-56359580D02*
X125380951Y-56264342D01*
X125380951Y-56264342D02*
X125380951Y-55978628D01*
X125380951Y-55978628D02*
X125428570Y-55883390D01*
X125428570Y-55883390D02*
X125476189Y-55835771D01*
X125476189Y-55835771D02*
X125571427Y-55788152D01*
X125571427Y-55788152D02*
X125761903Y-55788152D01*
X125761903Y-55788152D02*
X125857141Y-55835771D01*
X126285713Y-56454819D02*
X126285713Y-55788152D01*
X126285713Y-55978628D02*
X126333332Y-55883390D01*
X126333332Y-55883390D02*
X126380951Y-55835771D01*
X126380951Y-55835771D02*
X126476189Y-55788152D01*
X126476189Y-55788152D02*
X126571427Y-55788152D01*
X127285713Y-56407200D02*
X127190475Y-56454819D01*
X127190475Y-56454819D02*
X126999999Y-56454819D01*
X126999999Y-56454819D02*
X126904761Y-56407200D01*
X126904761Y-56407200D02*
X126857142Y-56311961D01*
X126857142Y-56311961D02*
X126857142Y-55931009D01*
X126857142Y-55931009D02*
X126904761Y-55835771D01*
X126904761Y-55835771D02*
X126999999Y-55788152D01*
X126999999Y-55788152D02*
X127190475Y-55788152D01*
X127190475Y-55788152D02*
X127285713Y-55835771D01*
X127285713Y-55835771D02*
X127333332Y-55931009D01*
X127333332Y-55931009D02*
X127333332Y-56026247D01*
X127333332Y-56026247D02*
X126857142Y-56121485D01*
X127666666Y-55788152D02*
X127857142Y-56454819D01*
X127857142Y-56454819D02*
X128047618Y-55978628D01*
X128047618Y-55978628D02*
X128238094Y-56454819D01*
X128238094Y-56454819D02*
X128428570Y-55788152D01*
X128571428Y-56550057D02*
X129333332Y-56550057D01*
X129428571Y-55454819D02*
X129999999Y-55454819D01*
X129714285Y-56454819D02*
X129714285Y-55454819D01*
X130714285Y-56407200D02*
X130619047Y-56454819D01*
X130619047Y-56454819D02*
X130428571Y-56454819D01*
X130428571Y-56454819D02*
X130333333Y-56407200D01*
X130333333Y-56407200D02*
X130285714Y-56311961D01*
X130285714Y-56311961D02*
X130285714Y-55931009D01*
X130285714Y-55931009D02*
X130333333Y-55835771D01*
X130333333Y-55835771D02*
X130428571Y-55788152D01*
X130428571Y-55788152D02*
X130619047Y-55788152D01*
X130619047Y-55788152D02*
X130714285Y-55835771D01*
X130714285Y-55835771D02*
X130761904Y-55931009D01*
X130761904Y-55931009D02*
X130761904Y-56026247D01*
X130761904Y-56026247D02*
X130285714Y-56121485D01*
X131190476Y-56454819D02*
X131190476Y-55788152D01*
X131190476Y-55978628D02*
X131238095Y-55883390D01*
X131238095Y-55883390D02*
X131285714Y-55835771D01*
X131285714Y-55835771D02*
X131380952Y-55788152D01*
X131380952Y-55788152D02*
X131476190Y-55788152D01*
X131809524Y-56454819D02*
X131809524Y-55788152D01*
X131809524Y-55883390D02*
X131857143Y-55835771D01*
X131857143Y-55835771D02*
X131952381Y-55788152D01*
X131952381Y-55788152D02*
X132095238Y-55788152D01*
X132095238Y-55788152D02*
X132190476Y-55835771D01*
X132190476Y-55835771D02*
X132238095Y-55931009D01*
X132238095Y-55931009D02*
X132238095Y-56454819D01*
X132238095Y-55931009D02*
X132285714Y-55835771D01*
X132285714Y-55835771D02*
X132380952Y-55788152D01*
X132380952Y-55788152D02*
X132523809Y-55788152D01*
X132523809Y-55788152D02*
X132619048Y-55835771D01*
X132619048Y-55835771D02*
X132666667Y-55931009D01*
X132666667Y-55931009D02*
X132666667Y-56454819D01*
X133142857Y-56454819D02*
X133142857Y-55788152D01*
X133142857Y-55454819D02*
X133095238Y-55502438D01*
X133095238Y-55502438D02*
X133142857Y-55550057D01*
X133142857Y-55550057D02*
X133190476Y-55502438D01*
X133190476Y-55502438D02*
X133142857Y-55454819D01*
X133142857Y-55454819D02*
X133142857Y-55550057D01*
X133619047Y-55788152D02*
X133619047Y-56454819D01*
X133619047Y-55883390D02*
X133666666Y-55835771D01*
X133666666Y-55835771D02*
X133761904Y-55788152D01*
X133761904Y-55788152D02*
X133904761Y-55788152D01*
X133904761Y-55788152D02*
X133999999Y-55835771D01*
X133999999Y-55835771D02*
X134047618Y-55931009D01*
X134047618Y-55931009D02*
X134047618Y-56454819D01*
X134952380Y-56454819D02*
X134952380Y-55931009D01*
X134952380Y-55931009D02*
X134904761Y-55835771D01*
X134904761Y-55835771D02*
X134809523Y-55788152D01*
X134809523Y-55788152D02*
X134619047Y-55788152D01*
X134619047Y-55788152D02*
X134523809Y-55835771D01*
X134952380Y-56407200D02*
X134857142Y-56454819D01*
X134857142Y-56454819D02*
X134619047Y-56454819D01*
X134619047Y-56454819D02*
X134523809Y-56407200D01*
X134523809Y-56407200D02*
X134476190Y-56311961D01*
X134476190Y-56311961D02*
X134476190Y-56216723D01*
X134476190Y-56216723D02*
X134523809Y-56121485D01*
X134523809Y-56121485D02*
X134619047Y-56073866D01*
X134619047Y-56073866D02*
X134857142Y-56073866D01*
X134857142Y-56073866D02*
X134952380Y-56026247D01*
X135571428Y-56454819D02*
X135476190Y-56407200D01*
X135476190Y-56407200D02*
X135428571Y-56311961D01*
X135428571Y-56311961D02*
X135428571Y-55454819D01*
X135714286Y-56550057D02*
X136476190Y-56550057D01*
X137047619Y-55931009D02*
X137190476Y-55978628D01*
X137190476Y-55978628D02*
X137238095Y-56026247D01*
X137238095Y-56026247D02*
X137285714Y-56121485D01*
X137285714Y-56121485D02*
X137285714Y-56264342D01*
X137285714Y-56264342D02*
X137238095Y-56359580D01*
X137238095Y-56359580D02*
X137190476Y-56407200D01*
X137190476Y-56407200D02*
X137095238Y-56454819D01*
X137095238Y-56454819D02*
X136714286Y-56454819D01*
X136714286Y-56454819D02*
X136714286Y-55454819D01*
X136714286Y-55454819D02*
X137047619Y-55454819D01*
X137047619Y-55454819D02*
X137142857Y-55502438D01*
X137142857Y-55502438D02*
X137190476Y-55550057D01*
X137190476Y-55550057D02*
X137238095Y-55645295D01*
X137238095Y-55645295D02*
X137238095Y-55740533D01*
X137238095Y-55740533D02*
X137190476Y-55835771D01*
X137190476Y-55835771D02*
X137142857Y-55883390D01*
X137142857Y-55883390D02*
X137047619Y-55931009D01*
X137047619Y-55931009D02*
X136714286Y-55931009D01*
X138142857Y-56454819D02*
X138142857Y-55931009D01*
X138142857Y-55931009D02*
X138095238Y-55835771D01*
X138095238Y-55835771D02*
X138000000Y-55788152D01*
X138000000Y-55788152D02*
X137809524Y-55788152D01*
X137809524Y-55788152D02*
X137714286Y-55835771D01*
X138142857Y-56407200D02*
X138047619Y-56454819D01*
X138047619Y-56454819D02*
X137809524Y-56454819D01*
X137809524Y-56454819D02*
X137714286Y-56407200D01*
X137714286Y-56407200D02*
X137666667Y-56311961D01*
X137666667Y-56311961D02*
X137666667Y-56216723D01*
X137666667Y-56216723D02*
X137714286Y-56121485D01*
X137714286Y-56121485D02*
X137809524Y-56073866D01*
X137809524Y-56073866D02*
X138047619Y-56073866D01*
X138047619Y-56073866D02*
X138142857Y-56026247D01*
X138476191Y-55788152D02*
X138857143Y-55788152D01*
X138619048Y-55454819D02*
X138619048Y-56311961D01*
X138619048Y-56311961D02*
X138666667Y-56407200D01*
X138666667Y-56407200D02*
X138761905Y-56454819D01*
X138761905Y-56454819D02*
X138857143Y-56454819D01*
X139047620Y-55788152D02*
X139428572Y-55788152D01*
X139190477Y-55454819D02*
X139190477Y-56311961D01*
X139190477Y-56311961D02*
X139238096Y-56407200D01*
X139238096Y-56407200D02*
X139333334Y-56454819D01*
X139333334Y-56454819D02*
X139428572Y-56454819D01*
X140142858Y-56407200D02*
X140047620Y-56454819D01*
X140047620Y-56454819D02*
X139857144Y-56454819D01*
X139857144Y-56454819D02*
X139761906Y-56407200D01*
X139761906Y-56407200D02*
X139714287Y-56311961D01*
X139714287Y-56311961D02*
X139714287Y-55931009D01*
X139714287Y-55931009D02*
X139761906Y-55835771D01*
X139761906Y-55835771D02*
X139857144Y-55788152D01*
X139857144Y-55788152D02*
X140047620Y-55788152D01*
X140047620Y-55788152D02*
X140142858Y-55835771D01*
X140142858Y-55835771D02*
X140190477Y-55931009D01*
X140190477Y-55931009D02*
X140190477Y-56026247D01*
X140190477Y-56026247D02*
X139714287Y-56121485D01*
X140619049Y-56454819D02*
X140619049Y-55788152D01*
X140619049Y-55978628D02*
X140666668Y-55883390D01*
X140666668Y-55883390D02*
X140714287Y-55835771D01*
X140714287Y-55835771D02*
X140809525Y-55788152D01*
X140809525Y-55788152D02*
X140904763Y-55788152D01*
X141142859Y-55788152D02*
X141380954Y-56454819D01*
X141619049Y-55788152D02*
X141380954Y-56454819D01*
X141380954Y-56454819D02*
X141285716Y-56692914D01*
X141285716Y-56692914D02*
X141238097Y-56740533D01*
X141238097Y-56740533D02*
X141142859Y-56788152D01*
X110349523Y-128407200D02*
X110492380Y-128454819D01*
X110492380Y-128454819D02*
X110730475Y-128454819D01*
X110730475Y-128454819D02*
X110825713Y-128407200D01*
X110825713Y-128407200D02*
X110873332Y-128359580D01*
X110873332Y-128359580D02*
X110920951Y-128264342D01*
X110920951Y-128264342D02*
X110920951Y-128169104D01*
X110920951Y-128169104D02*
X110873332Y-128073866D01*
X110873332Y-128073866D02*
X110825713Y-128026247D01*
X110825713Y-128026247D02*
X110730475Y-127978628D01*
X110730475Y-127978628D02*
X110539999Y-127931009D01*
X110539999Y-127931009D02*
X110444761Y-127883390D01*
X110444761Y-127883390D02*
X110397142Y-127835771D01*
X110397142Y-127835771D02*
X110349523Y-127740533D01*
X110349523Y-127740533D02*
X110349523Y-127645295D01*
X110349523Y-127645295D02*
X110397142Y-127550057D01*
X110397142Y-127550057D02*
X110444761Y-127502438D01*
X110444761Y-127502438D02*
X110539999Y-127454819D01*
X110539999Y-127454819D02*
X110778094Y-127454819D01*
X110778094Y-127454819D02*
X110920951Y-127502438D01*
X111730475Y-128407200D02*
X111635237Y-128454819D01*
X111635237Y-128454819D02*
X111444761Y-128454819D01*
X111444761Y-128454819D02*
X111349523Y-128407200D01*
X111349523Y-128407200D02*
X111301904Y-128311961D01*
X111301904Y-128311961D02*
X111301904Y-127931009D01*
X111301904Y-127931009D02*
X111349523Y-127835771D01*
X111349523Y-127835771D02*
X111444761Y-127788152D01*
X111444761Y-127788152D02*
X111635237Y-127788152D01*
X111635237Y-127788152D02*
X111730475Y-127835771D01*
X111730475Y-127835771D02*
X111778094Y-127931009D01*
X111778094Y-127931009D02*
X111778094Y-128026247D01*
X111778094Y-128026247D02*
X111301904Y-128121485D01*
X112206666Y-127788152D02*
X112206666Y-128454819D01*
X112206666Y-127883390D02*
X112254285Y-127835771D01*
X112254285Y-127835771D02*
X112349523Y-127788152D01*
X112349523Y-127788152D02*
X112492380Y-127788152D01*
X112492380Y-127788152D02*
X112587618Y-127835771D01*
X112587618Y-127835771D02*
X112635237Y-127931009D01*
X112635237Y-127931009D02*
X112635237Y-128454819D01*
X113063809Y-128407200D02*
X113159047Y-128454819D01*
X113159047Y-128454819D02*
X113349523Y-128454819D01*
X113349523Y-128454819D02*
X113444761Y-128407200D01*
X113444761Y-128407200D02*
X113492380Y-128311961D01*
X113492380Y-128311961D02*
X113492380Y-128264342D01*
X113492380Y-128264342D02*
X113444761Y-128169104D01*
X113444761Y-128169104D02*
X113349523Y-128121485D01*
X113349523Y-128121485D02*
X113206666Y-128121485D01*
X113206666Y-128121485D02*
X113111428Y-128073866D01*
X113111428Y-128073866D02*
X113063809Y-127978628D01*
X113063809Y-127978628D02*
X113063809Y-127931009D01*
X113063809Y-127931009D02*
X113111428Y-127835771D01*
X113111428Y-127835771D02*
X113206666Y-127788152D01*
X113206666Y-127788152D02*
X113349523Y-127788152D01*
X113349523Y-127788152D02*
X113444761Y-127835771D01*
X114063809Y-128454819D02*
X113968571Y-128407200D01*
X113968571Y-128407200D02*
X113920952Y-128359580D01*
X113920952Y-128359580D02*
X113873333Y-128264342D01*
X113873333Y-128264342D02*
X113873333Y-127978628D01*
X113873333Y-127978628D02*
X113920952Y-127883390D01*
X113920952Y-127883390D02*
X113968571Y-127835771D01*
X113968571Y-127835771D02*
X114063809Y-127788152D01*
X114063809Y-127788152D02*
X114206666Y-127788152D01*
X114206666Y-127788152D02*
X114301904Y-127835771D01*
X114301904Y-127835771D02*
X114349523Y-127883390D01*
X114349523Y-127883390D02*
X114397142Y-127978628D01*
X114397142Y-127978628D02*
X114397142Y-128264342D01*
X114397142Y-128264342D02*
X114349523Y-128359580D01*
X114349523Y-128359580D02*
X114301904Y-128407200D01*
X114301904Y-128407200D02*
X114206666Y-128454819D01*
X114206666Y-128454819D02*
X114063809Y-128454819D01*
X114825714Y-128454819D02*
X114825714Y-127788152D01*
X114825714Y-127978628D02*
X114873333Y-127883390D01*
X114873333Y-127883390D02*
X114920952Y-127835771D01*
X114920952Y-127835771D02*
X115016190Y-127788152D01*
X115016190Y-127788152D02*
X115111428Y-127788152D01*
X116730476Y-128454819D02*
X116159048Y-128454819D01*
X116444762Y-128454819D02*
X116444762Y-127454819D01*
X116444762Y-127454819D02*
X116349524Y-127597676D01*
X116349524Y-127597676D02*
X116254286Y-127692914D01*
X116254286Y-127692914D02*
X116159048Y-127740533D01*
X133936666Y-93584819D02*
X133936666Y-94299104D01*
X133936666Y-94299104D02*
X133889047Y-94441961D01*
X133889047Y-94441961D02*
X133793809Y-94537200D01*
X133793809Y-94537200D02*
X133650952Y-94584819D01*
X133650952Y-94584819D02*
X133555714Y-94584819D01*
X134841428Y-93918152D02*
X134841428Y-94584819D01*
X134603333Y-93537200D02*
X134365238Y-94251485D01*
X134365238Y-94251485D02*
X134984285Y-94251485D01*
X102039523Y-94454819D02*
X102039523Y-93454819D01*
X102039523Y-93454819D02*
X102372856Y-94169104D01*
X102372856Y-94169104D02*
X102706189Y-93454819D01*
X102706189Y-93454819D02*
X102706189Y-94454819D01*
X103325237Y-94454819D02*
X103229999Y-94407200D01*
X103229999Y-94407200D02*
X103182380Y-94359580D01*
X103182380Y-94359580D02*
X103134761Y-94264342D01*
X103134761Y-94264342D02*
X103134761Y-93978628D01*
X103134761Y-93978628D02*
X103182380Y-93883390D01*
X103182380Y-93883390D02*
X103229999Y-93835771D01*
X103229999Y-93835771D02*
X103325237Y-93788152D01*
X103325237Y-93788152D02*
X103468094Y-93788152D01*
X103468094Y-93788152D02*
X103563332Y-93835771D01*
X103563332Y-93835771D02*
X103610951Y-93883390D01*
X103610951Y-93883390D02*
X103658570Y-93978628D01*
X103658570Y-93978628D02*
X103658570Y-94264342D01*
X103658570Y-94264342D02*
X103610951Y-94359580D01*
X103610951Y-94359580D02*
X103563332Y-94407200D01*
X103563332Y-94407200D02*
X103468094Y-94454819D01*
X103468094Y-94454819D02*
X103325237Y-94454819D01*
X103944285Y-93788152D02*
X104325237Y-93788152D01*
X104087142Y-93454819D02*
X104087142Y-94311961D01*
X104087142Y-94311961D02*
X104134761Y-94407200D01*
X104134761Y-94407200D02*
X104229999Y-94454819D01*
X104229999Y-94454819D02*
X104325237Y-94454819D01*
X104801428Y-94454819D02*
X104706190Y-94407200D01*
X104706190Y-94407200D02*
X104658571Y-94359580D01*
X104658571Y-94359580D02*
X104610952Y-94264342D01*
X104610952Y-94264342D02*
X104610952Y-93978628D01*
X104610952Y-93978628D02*
X104658571Y-93883390D01*
X104658571Y-93883390D02*
X104706190Y-93835771D01*
X104706190Y-93835771D02*
X104801428Y-93788152D01*
X104801428Y-93788152D02*
X104944285Y-93788152D01*
X104944285Y-93788152D02*
X105039523Y-93835771D01*
X105039523Y-93835771D02*
X105087142Y-93883390D01*
X105087142Y-93883390D02*
X105134761Y-93978628D01*
X105134761Y-93978628D02*
X105134761Y-94264342D01*
X105134761Y-94264342D02*
X105087142Y-94359580D01*
X105087142Y-94359580D02*
X105039523Y-94407200D01*
X105039523Y-94407200D02*
X104944285Y-94454819D01*
X104944285Y-94454819D02*
X104801428Y-94454819D01*
X105563333Y-94454819D02*
X105563333Y-93788152D01*
X105563333Y-93978628D02*
X105610952Y-93883390D01*
X105610952Y-93883390D02*
X105658571Y-93835771D01*
X105658571Y-93835771D02*
X105753809Y-93788152D01*
X105753809Y-93788152D02*
X105849047Y-93788152D01*
X106896667Y-93550057D02*
X106944286Y-93502438D01*
X106944286Y-93502438D02*
X107039524Y-93454819D01*
X107039524Y-93454819D02*
X107277619Y-93454819D01*
X107277619Y-93454819D02*
X107372857Y-93502438D01*
X107372857Y-93502438D02*
X107420476Y-93550057D01*
X107420476Y-93550057D02*
X107468095Y-93645295D01*
X107468095Y-93645295D02*
X107468095Y-93740533D01*
X107468095Y-93740533D02*
X107420476Y-93883390D01*
X107420476Y-93883390D02*
X106849048Y-94454819D01*
X106849048Y-94454819D02*
X107468095Y-94454819D01*
X154833333Y-103084819D02*
X154500000Y-102608628D01*
X154261905Y-103084819D02*
X154261905Y-102084819D01*
X154261905Y-102084819D02*
X154642857Y-102084819D01*
X154642857Y-102084819D02*
X154738095Y-102132438D01*
X154738095Y-102132438D02*
X154785714Y-102180057D01*
X154785714Y-102180057D02*
X154833333Y-102275295D01*
X154833333Y-102275295D02*
X154833333Y-102418152D01*
X154833333Y-102418152D02*
X154785714Y-102513390D01*
X154785714Y-102513390D02*
X154738095Y-102561009D01*
X154738095Y-102561009D02*
X154642857Y-102608628D01*
X154642857Y-102608628D02*
X154261905Y-102608628D01*
X155690476Y-102418152D02*
X155690476Y-103084819D01*
X155452381Y-102037200D02*
X155214286Y-102751485D01*
X155214286Y-102751485D02*
X155833333Y-102751485D01*
X143643333Y-103454819D02*
X143310000Y-102978628D01*
X143071905Y-103454819D02*
X143071905Y-102454819D01*
X143071905Y-102454819D02*
X143452857Y-102454819D01*
X143452857Y-102454819D02*
X143548095Y-102502438D01*
X143548095Y-102502438D02*
X143595714Y-102550057D01*
X143595714Y-102550057D02*
X143643333Y-102645295D01*
X143643333Y-102645295D02*
X143643333Y-102788152D01*
X143643333Y-102788152D02*
X143595714Y-102883390D01*
X143595714Y-102883390D02*
X143548095Y-102931009D01*
X143548095Y-102931009D02*
X143452857Y-102978628D01*
X143452857Y-102978628D02*
X143071905Y-102978628D01*
X144595714Y-103454819D02*
X144024286Y-103454819D01*
X144310000Y-103454819D02*
X144310000Y-102454819D01*
X144310000Y-102454819D02*
X144214762Y-102597676D01*
X144214762Y-102597676D02*
X144119524Y-102692914D01*
X144119524Y-102692914D02*
X144024286Y-102740533D01*
X115991905Y-92464819D02*
X115991905Y-91464819D01*
X115991905Y-91464819D02*
X116230000Y-91464819D01*
X116230000Y-91464819D02*
X116372857Y-91512438D01*
X116372857Y-91512438D02*
X116468095Y-91607676D01*
X116468095Y-91607676D02*
X116515714Y-91702914D01*
X116515714Y-91702914D02*
X116563333Y-91893390D01*
X116563333Y-91893390D02*
X116563333Y-92036247D01*
X116563333Y-92036247D02*
X116515714Y-92226723D01*
X116515714Y-92226723D02*
X116468095Y-92321961D01*
X116468095Y-92321961D02*
X116372857Y-92417200D01*
X116372857Y-92417200D02*
X116230000Y-92464819D01*
X116230000Y-92464819D02*
X115991905Y-92464819D01*
X117515714Y-92464819D02*
X116944286Y-92464819D01*
X117230000Y-92464819D02*
X117230000Y-91464819D01*
X117230000Y-91464819D02*
X117134762Y-91607676D01*
X117134762Y-91607676D02*
X117039524Y-91702914D01*
X117039524Y-91702914D02*
X116944286Y-91750533D01*
X161547619Y-112454819D02*
X162119047Y-112454819D01*
X161833333Y-113454819D02*
X161833333Y-112454819D01*
X162452381Y-113454819D02*
X162452381Y-112454819D01*
X162928571Y-113454819D02*
X162928571Y-112454819D01*
X162928571Y-112454819D02*
X163309523Y-112454819D01*
X163309523Y-112454819D02*
X163404761Y-112502438D01*
X163404761Y-112502438D02*
X163452380Y-112550057D01*
X163452380Y-112550057D02*
X163499999Y-112645295D01*
X163499999Y-112645295D02*
X163499999Y-112788152D01*
X163499999Y-112788152D02*
X163452380Y-112883390D01*
X163452380Y-112883390D02*
X163404761Y-112931009D01*
X163404761Y-112931009D02*
X163309523Y-112978628D01*
X163309523Y-112978628D02*
X162928571Y-112978628D01*
X164452380Y-113454819D02*
X163880952Y-113454819D01*
X164166666Y-113454819D02*
X164166666Y-112454819D01*
X164166666Y-112454819D02*
X164071428Y-112597676D01*
X164071428Y-112597676D02*
X163976190Y-112692914D01*
X163976190Y-112692914D02*
X163880952Y-112740533D01*
X164833333Y-112550057D02*
X164880952Y-112502438D01*
X164880952Y-112502438D02*
X164976190Y-112454819D01*
X164976190Y-112454819D02*
X165214285Y-112454819D01*
X165214285Y-112454819D02*
X165309523Y-112502438D01*
X165309523Y-112502438D02*
X165357142Y-112550057D01*
X165357142Y-112550057D02*
X165404761Y-112645295D01*
X165404761Y-112645295D02*
X165404761Y-112740533D01*
X165404761Y-112740533D02*
X165357142Y-112883390D01*
X165357142Y-112883390D02*
X164785714Y-113454819D01*
X164785714Y-113454819D02*
X165404761Y-113454819D01*
X166023809Y-112454819D02*
X166119047Y-112454819D01*
X166119047Y-112454819D02*
X166214285Y-112502438D01*
X166214285Y-112502438D02*
X166261904Y-112550057D01*
X166261904Y-112550057D02*
X166309523Y-112645295D01*
X166309523Y-112645295D02*
X166357142Y-112835771D01*
X166357142Y-112835771D02*
X166357142Y-113073866D01*
X166357142Y-113073866D02*
X166309523Y-113264342D01*
X166309523Y-113264342D02*
X166261904Y-113359580D01*
X166261904Y-113359580D02*
X166214285Y-113407200D01*
X166214285Y-113407200D02*
X166119047Y-113454819D01*
X166119047Y-113454819D02*
X166023809Y-113454819D01*
X166023809Y-113454819D02*
X165928571Y-113407200D01*
X165928571Y-113407200D02*
X165880952Y-113359580D01*
X165880952Y-113359580D02*
X165833333Y-113264342D01*
X165833333Y-113264342D02*
X165785714Y-113073866D01*
X165785714Y-113073866D02*
X165785714Y-112835771D01*
X165785714Y-112835771D02*
X165833333Y-112645295D01*
X165833333Y-112645295D02*
X165880952Y-112550057D01*
X165880952Y-112550057D02*
X165928571Y-112502438D01*
X165928571Y-112502438D02*
X166023809Y-112454819D01*
X125833333Y-72039580D02*
X125785714Y-72087200D01*
X125785714Y-72087200D02*
X125642857Y-72134819D01*
X125642857Y-72134819D02*
X125547619Y-72134819D01*
X125547619Y-72134819D02*
X125404762Y-72087200D01*
X125404762Y-72087200D02*
X125309524Y-71991961D01*
X125309524Y-71991961D02*
X125261905Y-71896723D01*
X125261905Y-71896723D02*
X125214286Y-71706247D01*
X125214286Y-71706247D02*
X125214286Y-71563390D01*
X125214286Y-71563390D02*
X125261905Y-71372914D01*
X125261905Y-71372914D02*
X125309524Y-71277676D01*
X125309524Y-71277676D02*
X125404762Y-71182438D01*
X125404762Y-71182438D02*
X125547619Y-71134819D01*
X125547619Y-71134819D02*
X125642857Y-71134819D01*
X125642857Y-71134819D02*
X125785714Y-71182438D01*
X125785714Y-71182438D02*
X125833333Y-71230057D01*
X126785714Y-72134819D02*
X126214286Y-72134819D01*
X126500000Y-72134819D02*
X126500000Y-71134819D01*
X126500000Y-71134819D02*
X126404762Y-71277676D01*
X126404762Y-71277676D02*
X126309524Y-71372914D01*
X126309524Y-71372914D02*
X126214286Y-71420533D01*
X101547619Y-112454819D02*
X102119047Y-112454819D01*
X101833333Y-113454819D02*
X101833333Y-112454819D01*
X102452381Y-113454819D02*
X102452381Y-112454819D01*
X102928571Y-113454819D02*
X102928571Y-112454819D01*
X102928571Y-112454819D02*
X103309523Y-112454819D01*
X103309523Y-112454819D02*
X103404761Y-112502438D01*
X103404761Y-112502438D02*
X103452380Y-112550057D01*
X103452380Y-112550057D02*
X103499999Y-112645295D01*
X103499999Y-112645295D02*
X103499999Y-112788152D01*
X103499999Y-112788152D02*
X103452380Y-112883390D01*
X103452380Y-112883390D02*
X103404761Y-112931009D01*
X103404761Y-112931009D02*
X103309523Y-112978628D01*
X103309523Y-112978628D02*
X102928571Y-112978628D01*
X104452380Y-113454819D02*
X103880952Y-113454819D01*
X104166666Y-113454819D02*
X104166666Y-112454819D01*
X104166666Y-112454819D02*
X104071428Y-112597676D01*
X104071428Y-112597676D02*
X103976190Y-112692914D01*
X103976190Y-112692914D02*
X103880952Y-112740533D01*
X104833333Y-112550057D02*
X104880952Y-112502438D01*
X104880952Y-112502438D02*
X104976190Y-112454819D01*
X104976190Y-112454819D02*
X105214285Y-112454819D01*
X105214285Y-112454819D02*
X105309523Y-112502438D01*
X105309523Y-112502438D02*
X105357142Y-112550057D01*
X105357142Y-112550057D02*
X105404761Y-112645295D01*
X105404761Y-112645295D02*
X105404761Y-112740533D01*
X105404761Y-112740533D02*
X105357142Y-112883390D01*
X105357142Y-112883390D02*
X104785714Y-113454819D01*
X104785714Y-113454819D02*
X105404761Y-113454819D01*
X106023809Y-112454819D02*
X106119047Y-112454819D01*
X106119047Y-112454819D02*
X106214285Y-112502438D01*
X106214285Y-112502438D02*
X106261904Y-112550057D01*
X106261904Y-112550057D02*
X106309523Y-112645295D01*
X106309523Y-112645295D02*
X106357142Y-112835771D01*
X106357142Y-112835771D02*
X106357142Y-113073866D01*
X106357142Y-113073866D02*
X106309523Y-113264342D01*
X106309523Y-113264342D02*
X106261904Y-113359580D01*
X106261904Y-113359580D02*
X106214285Y-113407200D01*
X106214285Y-113407200D02*
X106119047Y-113454819D01*
X106119047Y-113454819D02*
X106023809Y-113454819D01*
X106023809Y-113454819D02*
X105928571Y-113407200D01*
X105928571Y-113407200D02*
X105880952Y-113359580D01*
X105880952Y-113359580D02*
X105833333Y-113264342D01*
X105833333Y-113264342D02*
X105785714Y-113073866D01*
X105785714Y-113073866D02*
X105785714Y-112835771D01*
X105785714Y-112835771D02*
X105833333Y-112645295D01*
X105833333Y-112645295D02*
X105880952Y-112550057D01*
X105880952Y-112550057D02*
X105928571Y-112502438D01*
X105928571Y-112502438D02*
X106023809Y-112454819D01*
X113023333Y-107824819D02*
X112690000Y-107348628D01*
X112451905Y-107824819D02*
X112451905Y-106824819D01*
X112451905Y-106824819D02*
X112832857Y-106824819D01*
X112832857Y-106824819D02*
X112928095Y-106872438D01*
X112928095Y-106872438D02*
X112975714Y-106920057D01*
X112975714Y-106920057D02*
X113023333Y-107015295D01*
X113023333Y-107015295D02*
X113023333Y-107158152D01*
X113023333Y-107158152D02*
X112975714Y-107253390D01*
X112975714Y-107253390D02*
X112928095Y-107301009D01*
X112928095Y-107301009D02*
X112832857Y-107348628D01*
X112832857Y-107348628D02*
X112451905Y-107348628D01*
X113356667Y-106824819D02*
X113975714Y-106824819D01*
X113975714Y-106824819D02*
X113642381Y-107205771D01*
X113642381Y-107205771D02*
X113785238Y-107205771D01*
X113785238Y-107205771D02*
X113880476Y-107253390D01*
X113880476Y-107253390D02*
X113928095Y-107301009D01*
X113928095Y-107301009D02*
X113975714Y-107396247D01*
X113975714Y-107396247D02*
X113975714Y-107634342D01*
X113975714Y-107634342D02*
X113928095Y-107729580D01*
X113928095Y-107729580D02*
X113880476Y-107777200D01*
X113880476Y-107777200D02*
X113785238Y-107824819D01*
X113785238Y-107824819D02*
X113499524Y-107824819D01*
X113499524Y-107824819D02*
X113404286Y-107777200D01*
X113404286Y-107777200D02*
X113356667Y-107729580D01*
X150272905Y-88185819D02*
X150272905Y-87185819D01*
X150272905Y-87185819D02*
X150511000Y-87185819D01*
X150511000Y-87185819D02*
X150653857Y-87233438D01*
X150653857Y-87233438D02*
X150749095Y-87328676D01*
X150749095Y-87328676D02*
X150796714Y-87423914D01*
X150796714Y-87423914D02*
X150844333Y-87614390D01*
X150844333Y-87614390D02*
X150844333Y-87757247D01*
X150844333Y-87757247D02*
X150796714Y-87947723D01*
X150796714Y-87947723D02*
X150749095Y-88042961D01*
X150749095Y-88042961D02*
X150653857Y-88138200D01*
X150653857Y-88138200D02*
X150511000Y-88185819D01*
X150511000Y-88185819D02*
X150272905Y-88185819D01*
X151225286Y-87281057D02*
X151272905Y-87233438D01*
X151272905Y-87233438D02*
X151368143Y-87185819D01*
X151368143Y-87185819D02*
X151606238Y-87185819D01*
X151606238Y-87185819D02*
X151701476Y-87233438D01*
X151701476Y-87233438D02*
X151749095Y-87281057D01*
X151749095Y-87281057D02*
X151796714Y-87376295D01*
X151796714Y-87376295D02*
X151796714Y-87471533D01*
X151796714Y-87471533D02*
X151749095Y-87614390D01*
X151749095Y-87614390D02*
X151177667Y-88185819D01*
X151177667Y-88185819D02*
X151796714Y-88185819D01*
X153942905Y-90370104D02*
X154419095Y-90370104D01*
X153847667Y-90655819D02*
X154181000Y-89655819D01*
X154181000Y-89655819D02*
X154514333Y-90655819D01*
X125833333Y-81039580D02*
X125785714Y-81087200D01*
X125785714Y-81087200D02*
X125642857Y-81134819D01*
X125642857Y-81134819D02*
X125547619Y-81134819D01*
X125547619Y-81134819D02*
X125404762Y-81087200D01*
X125404762Y-81087200D02*
X125309524Y-80991961D01*
X125309524Y-80991961D02*
X125261905Y-80896723D01*
X125261905Y-80896723D02*
X125214286Y-80706247D01*
X125214286Y-80706247D02*
X125214286Y-80563390D01*
X125214286Y-80563390D02*
X125261905Y-80372914D01*
X125261905Y-80372914D02*
X125309524Y-80277676D01*
X125309524Y-80277676D02*
X125404762Y-80182438D01*
X125404762Y-80182438D02*
X125547619Y-80134819D01*
X125547619Y-80134819D02*
X125642857Y-80134819D01*
X125642857Y-80134819D02*
X125785714Y-80182438D01*
X125785714Y-80182438D02*
X125833333Y-80230057D01*
X126214286Y-80230057D02*
X126261905Y-80182438D01*
X126261905Y-80182438D02*
X126357143Y-80134819D01*
X126357143Y-80134819D02*
X126595238Y-80134819D01*
X126595238Y-80134819D02*
X126690476Y-80182438D01*
X126690476Y-80182438D02*
X126738095Y-80230057D01*
X126738095Y-80230057D02*
X126785714Y-80325295D01*
X126785714Y-80325295D02*
X126785714Y-80420533D01*
X126785714Y-80420533D02*
X126738095Y-80563390D01*
X126738095Y-80563390D02*
X126166667Y-81134819D01*
X126166667Y-81134819D02*
X126785714Y-81134819D01*
X155126666Y-128454819D02*
X155126666Y-129169104D01*
X155126666Y-129169104D02*
X155079047Y-129311961D01*
X155079047Y-129311961D02*
X154983809Y-129407200D01*
X154983809Y-129407200D02*
X154840952Y-129454819D01*
X154840952Y-129454819D02*
X154745714Y-129454819D01*
X155555238Y-128550057D02*
X155602857Y-128502438D01*
X155602857Y-128502438D02*
X155698095Y-128454819D01*
X155698095Y-128454819D02*
X155936190Y-128454819D01*
X155936190Y-128454819D02*
X156031428Y-128502438D01*
X156031428Y-128502438D02*
X156079047Y-128550057D01*
X156079047Y-128550057D02*
X156126666Y-128645295D01*
X156126666Y-128645295D02*
X156126666Y-128740533D01*
X156126666Y-128740533D02*
X156079047Y-128883390D01*
X156079047Y-128883390D02*
X155507619Y-129454819D01*
X155507619Y-129454819D02*
X156126666Y-129454819D01*
X161460476Y-94674819D02*
X161460476Y-93674819D01*
X161460476Y-93674819D02*
X161793809Y-94389104D01*
X161793809Y-94389104D02*
X162127142Y-93674819D01*
X162127142Y-93674819D02*
X162127142Y-94674819D01*
X163127142Y-94674819D02*
X162555714Y-94674819D01*
X162841428Y-94674819D02*
X162841428Y-93674819D01*
X162841428Y-93674819D02*
X162746190Y-93817676D01*
X162746190Y-93817676D02*
X162650952Y-93912914D01*
X162650952Y-93912914D02*
X162555714Y-93960533D01*
X138238095Y-65129819D02*
X138238095Y-65939342D01*
X138238095Y-65939342D02*
X138285714Y-66034580D01*
X138285714Y-66034580D02*
X138333333Y-66082200D01*
X138333333Y-66082200D02*
X138428571Y-66129819D01*
X138428571Y-66129819D02*
X138619047Y-66129819D01*
X138619047Y-66129819D02*
X138714285Y-66082200D01*
X138714285Y-66082200D02*
X138761904Y-66034580D01*
X138761904Y-66034580D02*
X138809523Y-65939342D01*
X138809523Y-65939342D02*
X138809523Y-65129819D01*
X139190476Y-65129819D02*
X139809523Y-65129819D01*
X139809523Y-65129819D02*
X139476190Y-65510771D01*
X139476190Y-65510771D02*
X139619047Y-65510771D01*
X139619047Y-65510771D02*
X139714285Y-65558390D01*
X139714285Y-65558390D02*
X139761904Y-65606009D01*
X139761904Y-65606009D02*
X139809523Y-65701247D01*
X139809523Y-65701247D02*
X139809523Y-65939342D01*
X139809523Y-65939342D02*
X139761904Y-66034580D01*
X139761904Y-66034580D02*
X139714285Y-66082200D01*
X139714285Y-66082200D02*
X139619047Y-66129819D01*
X139619047Y-66129819D02*
X139333333Y-66129819D01*
X139333333Y-66129819D02*
X139238095Y-66082200D01*
X139238095Y-66082200D02*
X139190476Y-66034580D01*
D11*
%TO.C,J1*%
X117740000Y-59040000D02*
X117740000Y-52600000D01*
X118330000Y-52600000D02*
X117740000Y-52600000D01*
X118330000Y-53220000D02*
X117740000Y-53220000D01*
X120870000Y-52600000D02*
X120390000Y-52600000D01*
X120870000Y-53220000D02*
X120390000Y-53220000D01*
X123520000Y-52600000D02*
X122930000Y-52600000D01*
X123520000Y-53220000D02*
X122930000Y-53220000D01*
X123520000Y-58520000D02*
X117740000Y-58520000D01*
X123520000Y-59040000D02*
X117740000Y-59040000D01*
X123520000Y-59040000D02*
X123520000Y-52600000D01*
X121900000Y-52600000D02*
X121460000Y-51990000D01*
X122340000Y-51990000D01*
X121900000Y-52600000D01*
G36*
X121900000Y-52600000D02*
G01*
X121460000Y-51990000D01*
X122340000Y-51990000D01*
X121900000Y-52600000D01*
G37*
%TO.C,J3*%
X109380000Y-126220000D02*
X109380000Y-119780000D01*
X109970000Y-119780000D02*
X109380000Y-119780000D01*
X109970000Y-120400000D02*
X109380000Y-120400000D01*
X112510000Y-119780000D02*
X112030000Y-119780000D01*
X112510000Y-120400000D02*
X112030000Y-120400000D01*
X115050000Y-119780000D02*
X114570000Y-119780000D01*
X115050000Y-120400000D02*
X114570000Y-120400000D01*
X117700000Y-119780000D02*
X117110000Y-119780000D01*
X117700000Y-120400000D02*
X117110000Y-120400000D01*
X117700000Y-125700000D02*
X109380000Y-125700000D01*
X117700000Y-126220000D02*
X109380000Y-126220000D01*
X117700000Y-126220000D02*
X117700000Y-119780000D01*
X116080000Y-119780000D02*
X115640000Y-119170000D01*
X116520000Y-119170000D01*
X116080000Y-119780000D01*
G36*
X116080000Y-119780000D02*
G01*
X115640000Y-119170000D01*
X116520000Y-119170000D01*
X116080000Y-119780000D01*
G37*
%TO.C,J4*%
X131670000Y-95130000D02*
X133000000Y-95130000D01*
X131670000Y-96460000D02*
X131670000Y-95130000D01*
X131670000Y-97730000D02*
X131670000Y-120650000D01*
X131670000Y-97730000D02*
X134270000Y-97730000D01*
X131670000Y-120650000D02*
X136870000Y-120650000D01*
X134270000Y-95130000D02*
X136870000Y-95130000D01*
X134270000Y-97730000D02*
X134270000Y-95130000D01*
X136870000Y-95130000D02*
X136870000Y-120650000D01*
%TO.C,M2*%
X101840000Y-92760000D02*
X101840000Y-86320000D01*
X102430000Y-86320000D02*
X101840000Y-86320000D01*
X102430000Y-86940000D02*
X101840000Y-86940000D01*
X104970000Y-86320000D02*
X104490000Y-86320000D01*
X104970000Y-86940000D02*
X104490000Y-86940000D01*
X107620000Y-86320000D02*
X107030000Y-86320000D01*
X107620000Y-86940000D02*
X107030000Y-86940000D01*
X107620000Y-92240000D02*
X101840000Y-92240000D01*
X107620000Y-92760000D02*
X101840000Y-92760000D01*
X107620000Y-92760000D02*
X107620000Y-86320000D01*
X106000000Y-86320000D02*
X105560000Y-85710000D01*
X106440000Y-85710000D01*
X106000000Y-86320000D01*
G36*
X106000000Y-86320000D02*
G01*
X105560000Y-85710000D01*
X106440000Y-85710000D01*
X106000000Y-86320000D01*
G37*
%TO.C,R4*%
X151730000Y-103630000D02*
X158270000Y-103630000D01*
X151730000Y-103960000D02*
X151730000Y-103630000D01*
X151730000Y-106040000D02*
X151730000Y-106370000D01*
X151730000Y-106370000D02*
X158270000Y-106370000D01*
X158270000Y-103630000D02*
X158270000Y-103960000D01*
X158270000Y-106370000D02*
X158270000Y-106040000D01*
%TO.C,R1*%
X140540000Y-103630000D02*
X147080000Y-103630000D01*
X140540000Y-103960000D02*
X140540000Y-103630000D01*
X140540000Y-106040000D02*
X140540000Y-106370000D01*
X140540000Y-106370000D02*
X147080000Y-106370000D01*
X147080000Y-103630000D02*
X147080000Y-103960000D01*
X147080000Y-106370000D02*
X147080000Y-106040000D01*
%TO.C,D1*%
X116946150Y-88571134D02*
G75*
G02*
X116886761Y-90440000I1053850J-968866D01*
G01*
%TO.C,Q1*%
X149340000Y-110730000D02*
X149340000Y-115371000D01*
X149340000Y-110730000D02*
X159580000Y-110730000D01*
X149340000Y-112240000D02*
X159580000Y-112240000D01*
X149340000Y-115371000D02*
X159580000Y-115371000D01*
X152610000Y-110730000D02*
X152610000Y-112240000D01*
X156311000Y-110730000D02*
X156311000Y-112240000D01*
X159580000Y-110730000D02*
X159580000Y-115371000D01*
%TO.C,C1*%
X126261252Y-69265000D02*
X125738748Y-69265000D01*
X126261252Y-70735000D02*
X125738748Y-70735000D01*
%TO.C,R2*%
X121920000Y-103630000D02*
X121920000Y-103960000D01*
X121920000Y-106370000D02*
X121920000Y-106040000D01*
X128460000Y-103630000D02*
X121920000Y-103630000D01*
X128460000Y-103960000D02*
X128460000Y-103630000D01*
X128460000Y-106040000D02*
X128460000Y-106370000D01*
X128460000Y-106370000D02*
X121920000Y-106370000D01*
%TO.C,Q2*%
X108340000Y-115270000D02*
X108340000Y-110629000D01*
X111609000Y-115270000D02*
X111609000Y-113760000D01*
X115310000Y-115270000D02*
X115310000Y-113760000D01*
X118580000Y-110629000D02*
X108340000Y-110629000D01*
X118580000Y-113760000D02*
X108340000Y-113760000D01*
X118580000Y-115270000D02*
X108340000Y-115270000D01*
X118580000Y-115270000D02*
X118580000Y-110629000D01*
%TO.C,R3*%
X109920000Y-103630000D02*
X109920000Y-103960000D01*
X109920000Y-106370000D02*
X109920000Y-106040000D01*
X116460000Y-103630000D02*
X109920000Y-103630000D01*
X116460000Y-103960000D02*
X116460000Y-103630000D01*
X116460000Y-106040000D02*
X116460000Y-106370000D01*
X116460000Y-106370000D02*
X109920000Y-106370000D01*
%TO.C,D2*%
X150794850Y-91169866D02*
G75*
G02*
X150854239Y-89301000I-1053850J968866D01*
G01*
%TO.C,C2*%
X126261252Y-78265000D02*
X125738748Y-78265000D01*
X126261252Y-79735000D02*
X125738748Y-79735000D01*
%TO.C,J2*%
X151300000Y-120780000D02*
X151300000Y-127220000D01*
X151300000Y-120780000D02*
X159620000Y-120780000D01*
X151300000Y-121300000D02*
X159620000Y-121300000D01*
X151300000Y-126600000D02*
X151890000Y-126600000D01*
X151300000Y-127220000D02*
X151890000Y-127220000D01*
X153950000Y-126600000D02*
X154430000Y-126600000D01*
X153950000Y-127220000D02*
X154430000Y-127220000D01*
X156490000Y-126600000D02*
X156970000Y-126600000D01*
X156490000Y-127220000D02*
X156970000Y-127220000D01*
X159030000Y-126600000D02*
X159620000Y-126600000D01*
X159030000Y-127220000D02*
X159620000Y-127220000D01*
X159620000Y-120780000D02*
X159620000Y-127220000D01*
X153360000Y-127830000D02*
X152480000Y-127830000D01*
X152920000Y-127220000D01*
X153360000Y-127830000D01*
G36*
X153360000Y-127830000D02*
G01*
X152480000Y-127830000D01*
X152920000Y-127220000D01*
X153360000Y-127830000D01*
G37*
%TO.C,M1*%
X159380000Y-93220000D02*
X159380000Y-86780000D01*
X159970000Y-86780000D02*
X159380000Y-86780000D01*
X159970000Y-87400000D02*
X159380000Y-87400000D01*
X162510000Y-86780000D02*
X162030000Y-86780000D01*
X162510000Y-87400000D02*
X162030000Y-87400000D01*
X165160000Y-86780000D02*
X164570000Y-86780000D01*
X165160000Y-87400000D02*
X164570000Y-87400000D01*
X165160000Y-92700000D02*
X159380000Y-92700000D01*
X165160000Y-93220000D02*
X159380000Y-93220000D01*
X165160000Y-93220000D02*
X165160000Y-86780000D01*
X163540000Y-86780000D02*
X163100000Y-86170000D01*
X163980000Y-86170000D01*
X163540000Y-86780000D01*
G36*
X163540000Y-86780000D02*
G01*
X163100000Y-86170000D01*
X163980000Y-86170000D01*
X163540000Y-86780000D01*
G37*
%TO.C,U3*%
X133880000Y-66675000D02*
X133880000Y-71316000D01*
X133880000Y-66675000D02*
X144120000Y-66675000D01*
X133880000Y-68185000D02*
X144120000Y-68185000D01*
X133880000Y-71316000D02*
X144120000Y-71316000D01*
X137150000Y-66675000D02*
X137150000Y-68185000D01*
X140851000Y-66675000D02*
X140851000Y-68185000D01*
X144120000Y-66675000D02*
X144120000Y-71316000D01*
%TD*%
M02*
