%TF.GenerationSoftware,KiCad,Pcbnew,9.0.0*%
%TF.CreationDate,2025-08-03T16:24:41+07:00*%
%TF.ProjectId,O1_Circuit,4f315f43-6972-4637-9569-742e6b696361,rev?*%
%TF.SameCoordinates,Original*%
%TF.FileFunction,Soldermask,Bot*%
%TF.FilePolarity,Negative*%
%FSLAX46Y46*%
G04 Gerber Fmt 4.6, Leading zero omitted, Abs format (unit mm)*
G04 Created by KiCad (PCBNEW 9.0.0) date 2025-08-03 16:24:41*
%MOMM*%
%LPD*%
G01*
G04 APERTURE LIST*
G04 Aperture macros list*
%AMRoundRect*
0 Rectangle with rounded corners*
0 $1 Rounding radius*
0 $2 $3 $4 $5 $6 $7 $8 $9 X,Y pos of 4 corners*
0 Add a 4 corners polygon primitive as box body*
4,1,4,$2,$3,$4,$5,$6,$7,$8,$9,$2,$3,0*
0 Add four circle primitives for the rounded corners*
1,1,$1+$1,$2,$3*
1,1,$1+$1,$4,$5*
1,1,$1+$1,$6,$7*
1,1,$1+$1,$8,$9*
0 Add four rect primitives between the rounded corners*
20,1,$1+$1,$2,$3,$4,$5,0*
20,1,$1+$1,$4,$5,$6,$7,0*
20,1,$1+$1,$6,$7,$8,$9,0*
20,1,$1+$1,$8,$9,$2,$3,0*%
G04 Aperture macros list end*
%ADD10RoundRect,0.250000X-1.050000X-1.050000X1.050000X-1.050000X1.050000X1.050000X-1.050000X1.050000X0*%
%ADD11C,2.600000*%
%ADD12C,1.600000*%
%ADD13O,1.600000X1.600000*%
%ADD14RoundRect,0.250000X1.050000X1.050000X-1.050000X1.050000X-1.050000X-1.050000X1.050000X-1.050000X0*%
%ADD15R,1.800000X1.800000*%
%ADD16O,1.800000X1.800000*%
%ADD17R,1.905000X2.000000*%
%ADD18O,1.905000X2.000000*%
%ADD19C,2.000000*%
%ADD20R,1.700000X1.700000*%
%ADD21O,1.700000X1.700000*%
%ADD22C,2.500000*%
G04 APERTURE END LIST*
D10*
%TO.C,J2*%
X152915000Y-123167500D03*
D11*
X157995000Y-123167500D03*
X163075000Y-123167500D03*
%TD*%
D12*
%TO.C,R4*%
X156650000Y-100920000D03*
D13*
X164270000Y-100920000D03*
%TD*%
D12*
%TO.C,R1*%
X139460000Y-100920000D03*
D13*
X147080000Y-100920000D03*
%TD*%
D14*
%TO.C,J1*%
X121360000Y-52920000D03*
D11*
X116280000Y-52920000D03*
%TD*%
D15*
%TO.C,D1*%
X114474500Y-85460000D03*
D16*
X111934500Y-85460000D03*
%TD*%
D17*
%TO.C,Q1*%
X158380000Y-109920000D03*
D18*
X160920000Y-109920000D03*
X163460000Y-109920000D03*
%TD*%
D19*
%TO.C,C1*%
X121460000Y-65920000D03*
X116460000Y-65920000D03*
%TD*%
D20*
%TO.C,J4*%
X132460000Y-92380000D03*
D21*
X135000000Y-97380000D03*
X135000000Y-114880000D03*
X132460000Y-110880000D03*
X132460000Y-106880000D03*
X135000000Y-102380000D03*
%TD*%
D22*
%TO.C,H2*%
X93000000Y-44000000D03*
%TD*%
%TO.C,H4*%
X93000000Y-132000000D03*
%TD*%
D12*
%TO.C,R2*%
X128460000Y-100920000D03*
D13*
X120840000Y-100920000D03*
%TD*%
D14*
%TO.C,M1*%
X171080000Y-85920000D03*
D11*
X166000000Y-85920000D03*
%TD*%
D22*
%TO.C,H3*%
X175000000Y-132000000D03*
%TD*%
D14*
%TO.C,M2*%
X102474500Y-85460000D03*
D11*
X97394500Y-85460000D03*
%TD*%
D17*
%TO.C,Q2*%
X109620000Y-108000000D03*
D18*
X107080000Y-108000000D03*
X104540000Y-108000000D03*
%TD*%
D17*
%TO.C,U3*%
X135920000Y-65865000D03*
D18*
X138460000Y-65865000D03*
X141000000Y-65865000D03*
%TD*%
D14*
%TO.C,J3*%
X115540000Y-123000000D03*
D11*
X110460000Y-123000000D03*
X105380000Y-123000000D03*
%TD*%
D12*
%TO.C,R3*%
X110620000Y-101000000D03*
D13*
X103000000Y-101000000D03*
%TD*%
D22*
%TO.C,H1*%
X175000000Y-44000000D03*
%TD*%
D15*
%TO.C,D2*%
X157281000Y-86121000D03*
D16*
X159821000Y-86121000D03*
%TD*%
D19*
%TO.C,C2*%
X121500000Y-76000000D03*
X116500000Y-76000000D03*
%TD*%
M02*
