%TF.GenerationSoftware,KiCad,Pcbnew,9.0.0*%
%TF.CreationDate,2025-08-03T16:24:46+07:00*%
%TF.ProjectId,O1_Circuit,4f315f43-6972-4637-9569-742e6b696361,rev?*%
%TF.SameCoordinates,Original*%
%TF.FileFunction,Plated,1,2,PTH,Drill*%
%TF.FilePolarity,Positive*%
%FSLAX46Y46*%
G04 Gerber Fmt 4.6, Leading zero omitted, Abs format (unit mm)*
G04 Created by KiCad (PCBNEW 9.0.0) date 2025-08-03 16:24:46*
%MOMM*%
%LPD*%
G01*
G04 APERTURE LIST*
%TA.AperFunction,ComponentDrill*%
%ADD10C,0.800000*%
%TD*%
%TA.AperFunction,ComponentDrill*%
%ADD11C,0.900000*%
%TD*%
%TA.AperFunction,ComponentDrill*%
%ADD12C,1.000000*%
%TD*%
%TA.AperFunction,ComponentDrill*%
%ADD13C,1.100000*%
%TD*%
%TA.AperFunction,ComponentDrill*%
%ADD14C,1.300000*%
%TD*%
G04 APERTURE END LIST*
D10*
%TO.C,R3*%
X103000000Y-101000000D03*
X110620000Y-101000000D03*
%TO.C,R2*%
X120840000Y-100920000D03*
X128460000Y-100920000D03*
%TO.C,R1*%
X139460000Y-100920000D03*
X147080000Y-100920000D03*
%TO.C,R4*%
X156650000Y-100920000D03*
X164270000Y-100920000D03*
D11*
%TO.C,D1*%
X111934500Y-85460000D03*
X114474500Y-85460000D03*
%TO.C,D2*%
X157281000Y-86121000D03*
X159821000Y-86121000D03*
D12*
%TO.C,C1*%
X116460000Y-65920000D03*
%TO.C,C2*%
X116500000Y-76000000D03*
%TO.C,C1*%
X121460000Y-65920000D03*
%TO.C,C2*%
X121500000Y-76000000D03*
D13*
%TO.C,Q2*%
X104540000Y-108000000D03*
X107080000Y-108000000D03*
X109620000Y-108000000D03*
%TO.C,J4*%
X132460000Y-92380000D03*
X132460000Y-106880000D03*
X132460000Y-110880000D03*
X135000000Y-97380000D03*
X135000000Y-102380000D03*
X135000000Y-114880000D03*
%TO.C,U3*%
X135920000Y-65865000D03*
X138460000Y-65865000D03*
X141000000Y-65865000D03*
%TO.C,Q1*%
X158380000Y-109920000D03*
X160920000Y-109920000D03*
X163460000Y-109920000D03*
D14*
%TO.C,M2*%
X97394500Y-85460000D03*
X102474500Y-85460000D03*
%TO.C,J3*%
X105380000Y-123000000D03*
X110460000Y-123000000D03*
X115540000Y-123000000D03*
%TO.C,J1*%
X116280000Y-52920000D03*
X121360000Y-52920000D03*
%TO.C,J2*%
X152915000Y-123167500D03*
X157995000Y-123167500D03*
X163075000Y-123167500D03*
%TO.C,M1*%
X166000000Y-85920000D03*
X171080000Y-85920000D03*
M02*
