%TF.GenerationSoftware,KiCad,Pcbnew,9.0.0*%
%TF.CreationDate,2025-08-03T16:24:41+07:00*%
%TF.ProjectId,O1_Circuit,4f315f43-6972-4637-9569-742e6b696361,rev?*%
%TF.SameCoordinates,Original*%
%TF.FileFunction,Copper,L2,Bot*%
%TF.FilePolarity,Positive*%
%FSLAX46Y46*%
G04 Gerber Fmt 4.6, Leading zero omitted, Abs format (unit mm)*
G04 Created by KiCad (PCBNEW 9.0.0) date 2025-08-03 16:24:41*
%MOMM*%
%LPD*%
G01*
G04 APERTURE LIST*
G04 Aperture macros list*
%AMRoundRect*
0 Rectangle with rounded corners*
0 $1 Rounding radius*
0 $2 $3 $4 $5 $6 $7 $8 $9 X,Y pos of 4 corners*
0 Add a 4 corners polygon primitive as box body*
4,1,4,$2,$3,$4,$5,$6,$7,$8,$9,$2,$3,0*
0 Add four circle primitives for the rounded corners*
1,1,$1+$1,$2,$3*
1,1,$1+$1,$4,$5*
1,1,$1+$1,$6,$7*
1,1,$1+$1,$8,$9*
0 Add four rect primitives between the rounded corners*
20,1,$1+$1,$2,$3,$4,$5,0*
20,1,$1+$1,$4,$5,$6,$7,0*
20,1,$1+$1,$6,$7,$8,$9,0*
20,1,$1+$1,$8,$9,$2,$3,0*%
G04 Aperture macros list end*
%TA.AperFunction,ComponentPad*%
%ADD10RoundRect,0.250000X-1.050000X-1.050000X1.050000X-1.050000X1.050000X1.050000X-1.050000X1.050000X0*%
%TD*%
%TA.AperFunction,ComponentPad*%
%ADD11C,2.600000*%
%TD*%
%TA.AperFunction,ComponentPad*%
%ADD12C,1.600000*%
%TD*%
%TA.AperFunction,ComponentPad*%
%ADD13O,1.600000X1.600000*%
%TD*%
%TA.AperFunction,ComponentPad*%
%ADD14RoundRect,0.250000X1.050000X1.050000X-1.050000X1.050000X-1.050000X-1.050000X1.050000X-1.050000X0*%
%TD*%
%TA.AperFunction,ComponentPad*%
%ADD15R,1.800000X1.800000*%
%TD*%
%TA.AperFunction,ComponentPad*%
%ADD16O,1.800000X1.800000*%
%TD*%
%TA.AperFunction,ComponentPad*%
%ADD17R,1.905000X2.000000*%
%TD*%
%TA.AperFunction,ComponentPad*%
%ADD18O,1.905000X2.000000*%
%TD*%
%TA.AperFunction,ComponentPad*%
%ADD19C,2.000000*%
%TD*%
%TA.AperFunction,ComponentPad*%
%ADD20R,1.700000X1.700000*%
%TD*%
%TA.AperFunction,ComponentPad*%
%ADD21O,1.700000X1.700000*%
%TD*%
G04 APERTURE END LIST*
D10*
%TO.P,J2,1,Pin_1*%
%TO.N,+5V*%
X152915000Y-123167500D03*
D11*
%TO.P,J2,2,Pin_2*%
%TO.N,/PE2*%
X157995000Y-123167500D03*
%TO.P,J2,3,Pin_3*%
%TO.N,GND*%
X163075000Y-123167500D03*
%TD*%
D12*
%TO.P,R4,1*%
%TO.N,Net-(Q1-B)*%
X156650000Y-100920000D03*
D13*
%TO.P,R4,2*%
%TO.N,GND*%
X164270000Y-100920000D03*
%TD*%
D12*
%TO.P,R1,1*%
%TO.N,/PA5*%
X139460000Y-100920000D03*
D13*
%TO.P,R1,2*%
%TO.N,Net-(Q1-B)*%
X147080000Y-100920000D03*
%TD*%
D14*
%TO.P,J1,1,Pin_1*%
%TO.N,GND*%
X121360000Y-52920000D03*
D11*
%TO.P,J1,2,Pin_2*%
%TO.N,+7.5V*%
X116280000Y-52920000D03*
%TD*%
D15*
%TO.P,D1,1,K*%
%TO.N,+7.5V*%
X114474500Y-85460000D03*
D16*
%TO.P,D1,2,A*%
%TO.N,Net-(D1-A)*%
X111934500Y-85460000D03*
%TD*%
D17*
%TO.P,Q1,1,B*%
%TO.N,Net-(Q1-B)*%
X158380000Y-109920000D03*
D18*
%TO.P,Q1,2,C*%
%TO.N,Net-(D2-A)*%
X160920000Y-109920000D03*
%TO.P,Q1,3,E*%
%TO.N,GND*%
X163460000Y-109920000D03*
%TD*%
D19*
%TO.P,C1,1*%
%TO.N,GND*%
X121460000Y-65920000D03*
%TO.P,C1,2*%
%TO.N,+7.5V*%
X116460000Y-65920000D03*
%TD*%
D20*
%TO.P,J4,1,Pin_1*%
%TO.N,+5V*%
X132460000Y-92380000D03*
D21*
%TO.P,J4,2,Pin_2*%
%TO.N,GND*%
X135000000Y-97380000D03*
%TO.P,J4,4,Pin_4*%
%TO.N,/PE2*%
X135000000Y-114880000D03*
%TO.P,J4,5,Pin_5*%
%TO.N,/PE3*%
X132460000Y-110880000D03*
%TO.P,J4,7,Pin_7*%
%TO.N,/PA4*%
X132460000Y-106880000D03*
%TO.P,J4,8,Pin_8*%
%TO.N,/PA5*%
X135000000Y-102380000D03*
%TD*%
D12*
%TO.P,R2,1*%
%TO.N,/PA4*%
X128460000Y-100920000D03*
D13*
%TO.P,R2,2*%
%TO.N,Net-(Q2-B)*%
X120840000Y-100920000D03*
%TD*%
D14*
%TO.P,M1,1,+*%
%TO.N,+7.5V*%
X171080000Y-85920000D03*
D11*
%TO.P,M1,2,-*%
%TO.N,Net-(D2-A)*%
X166000000Y-85920000D03*
%TD*%
D14*
%TO.P,M2,1,+*%
%TO.N,+7.5V*%
X102474500Y-85460000D03*
D11*
%TO.P,M2,2,-*%
%TO.N,Net-(D1-A)*%
X97394500Y-85460000D03*
%TD*%
D17*
%TO.P,Q2,1,B*%
%TO.N,Net-(Q2-B)*%
X109620000Y-108000000D03*
D18*
%TO.P,Q2,2,C*%
%TO.N,Net-(D1-A)*%
X107080000Y-108000000D03*
%TO.P,Q2,3,E*%
%TO.N,GND*%
X104540000Y-108000000D03*
%TD*%
D17*
%TO.P,U3,1,IN*%
%TO.N,+7.5V*%
X135920000Y-65865000D03*
D18*
%TO.P,U3,2,GND*%
%TO.N,GND*%
X138460000Y-65865000D03*
%TO.P,U3,3,OUT*%
%TO.N,+5V*%
X141000000Y-65865000D03*
%TD*%
D14*
%TO.P,J3,1,Pin_1*%
%TO.N,+5V*%
X115540000Y-123000000D03*
D11*
%TO.P,J3,2,Pin_2*%
%TO.N,/PE3*%
X110460000Y-123000000D03*
%TO.P,J3,3,Pin_3*%
%TO.N,GND*%
X105380000Y-123000000D03*
%TD*%
D12*
%TO.P,R3,1*%
%TO.N,Net-(Q2-B)*%
X110620000Y-101000000D03*
D13*
%TO.P,R3,2*%
%TO.N,GND*%
X103000000Y-101000000D03*
%TD*%
D15*
%TO.P,D2,1,K*%
%TO.N,+7.5V*%
X157281000Y-86121000D03*
D16*
%TO.P,D2,2,A*%
%TO.N,Net-(D2-A)*%
X159821000Y-86121000D03*
%TD*%
D19*
%TO.P,C2,1*%
%TO.N,GND*%
X121500000Y-76000000D03*
%TO.P,C2,2*%
%TO.N,+5V*%
X116500000Y-76000000D03*
%TD*%
M02*
