%TF.GenerationSoftware,KiCad,Pcbnew,9.0.0*%
%TF.CreationDate,2025-07-26T11:29:55+07:00*%
%TF.ProjectId,O1_Circuit,4f315f43-6972-4637-9569-742e6b696361,rev?*%
%TF.SameCoordinates,Original*%
%TF.FileFunction,Soldermask,Top*%
%TF.FilePolarity,Negative*%
%FSLAX46Y46*%
G04 Gerber Fmt 4.6, Leading zero omitted, Abs format (unit mm)*
G04 Created by KiCad (PCBNEW 9.0.0) date 2025-07-26 11:29:55*
%MOMM*%
%LPD*%
G01*
G04 APERTURE LIST*
G04 Aperture macros list*
%AMRoundRect*
0 Rectangle with rounded corners*
0 $1 Rounding radius*
0 $2 $3 $4 $5 $6 $7 $8 $9 X,Y pos of 4 corners*
0 Add a 4 corners polygon primitive as box body*
4,1,4,$2,$3,$4,$5,$6,$7,$8,$9,$2,$3,0*
0 Add four circle primitives for the rounded corners*
1,1,$1+$1,$2,$3*
1,1,$1+$1,$4,$5*
1,1,$1+$1,$6,$7*
1,1,$1+$1,$8,$9*
0 Add four rect primitives between the rounded corners*
20,1,$1+$1,$2,$3,$4,$5,0*
20,1,$1+$1,$4,$5,$6,$7,0*
20,1,$1+$1,$6,$7,$8,$9,0*
20,1,$1+$1,$8,$9,$2,$3,0*%
G04 Aperture macros list end*
%ADD10C,2.500000*%
%ADD11C,1.100000*%
%ADD12RoundRect,0.249999X0.850001X0.850001X-0.850001X0.850001X-0.850001X-0.850001X0.850001X-0.850001X0*%
%ADD13C,2.200000*%
%ADD14R,1.700000X1.700000*%
%ADD15O,1.700000X1.700000*%
%ADD16C,1.600000*%
%ADD17O,1.600000X1.600000*%
%ADD18R,1.800000X1.800000*%
%ADD19O,1.800000X1.800000*%
%ADD20R,1.905000X2.000000*%
%ADD21O,1.905000X2.000000*%
%ADD22RoundRect,0.250000X0.250000X0.475000X-0.250000X0.475000X-0.250000X-0.475000X0.250000X-0.475000X0*%
%ADD23RoundRect,0.249999X-0.850001X-0.850001X0.850001X-0.850001X0.850001X0.850001X-0.850001X0.850001X0*%
G04 APERTURE END LIST*
D10*
%TO.C,H4*%
X103000000Y-128000000D03*
%TD*%
%TO.C,H3*%
X165000000Y-128000000D03*
%TD*%
%TO.C,H2*%
X103000000Y-53000000D03*
%TD*%
%TO.C,H1*%
X164000000Y-53000000D03*
%TD*%
D11*
%TO.C,J1*%
X121900000Y-53280000D03*
X119360000Y-53280000D03*
D12*
X121900000Y-55820000D03*
D13*
X119360000Y-55820000D03*
%TD*%
D11*
%TO.C,J3*%
X116080000Y-120460000D03*
X113540000Y-120460000D03*
X111000000Y-120460000D03*
D12*
X116080000Y-123000000D03*
D13*
X113540000Y-123000000D03*
X111000000Y-123000000D03*
%TD*%
D14*
%TO.C,J4*%
X133000000Y-96460000D03*
D15*
X135540000Y-96460000D03*
X133000000Y-99000000D03*
X135540000Y-99000000D03*
X133000000Y-101540000D03*
X135540000Y-101540000D03*
X133000000Y-104080000D03*
X135540000Y-104080000D03*
X133000000Y-106620000D03*
X135540000Y-106620000D03*
X133000000Y-109160000D03*
X135540000Y-109160000D03*
X133000000Y-111700000D03*
X135540000Y-111700000D03*
X133000000Y-114240000D03*
X135540000Y-114240000D03*
X133000000Y-116780000D03*
X135540000Y-116780000D03*
X133000000Y-119320000D03*
X135540000Y-119320000D03*
%TD*%
D11*
%TO.C,M2*%
X106000000Y-87000000D03*
X103460000Y-87000000D03*
D12*
X106000000Y-89540000D03*
D13*
X103460000Y-89540000D03*
%TD*%
D16*
%TO.C,R4*%
X151190000Y-105000000D03*
D17*
X158810000Y-105000000D03*
%TD*%
D16*
%TO.C,R1*%
X140000000Y-105000000D03*
D17*
X147620000Y-105000000D03*
%TD*%
D18*
%TO.C,D1*%
X118000000Y-89540000D03*
D19*
X115460000Y-89540000D03*
%TD*%
D20*
%TO.C,Q1*%
X151920000Y-114000000D03*
D21*
X154460000Y-114000000D03*
X157000000Y-114000000D03*
%TD*%
D22*
%TO.C,C1*%
X126950000Y-70000000D03*
X125050000Y-70000000D03*
%TD*%
D16*
%TO.C,R2*%
X129000000Y-105000000D03*
D17*
X121380000Y-105000000D03*
%TD*%
D20*
%TO.C,Q2*%
X116000000Y-112000000D03*
D21*
X113460000Y-112000000D03*
X110920000Y-112000000D03*
%TD*%
D16*
%TO.C,R3*%
X117000000Y-105000000D03*
D17*
X109380000Y-105000000D03*
%TD*%
D18*
%TO.C,D2*%
X149741000Y-90201000D03*
D19*
X152281000Y-90201000D03*
%TD*%
D22*
%TO.C,C2*%
X126950000Y-79000000D03*
X125050000Y-79000000D03*
%TD*%
D11*
%TO.C,J2*%
X152920000Y-126540000D03*
X155460000Y-126540000D03*
X158000000Y-126540000D03*
D23*
X152920000Y-124000000D03*
D13*
X155460000Y-124000000D03*
X158000000Y-124000000D03*
%TD*%
D11*
%TO.C,M1*%
X163540000Y-87460000D03*
X161000000Y-87460000D03*
D12*
X163540000Y-90000000D03*
D13*
X161000000Y-90000000D03*
%TD*%
D20*
%TO.C,U3*%
X136460000Y-69945000D03*
D21*
X139000000Y-69945000D03*
X141540000Y-69945000D03*
%TD*%
M02*
